<svg viewBox="0 0 179.42 42.36" xmlns="http://www.w3.org/2000/svg" xmlns:xlink="http://www.w3.org/1999/xlink"><linearGradient id="a" gradientUnits="userSpaceOnUse" x1="0" x2="179.42" y1="21.18" y2="21.18"><stop offset="0" stop-color="#662d91"></stop><stop offset="1" stop-color="#e7008c"></stop></linearGradient><path d="m172.76 22.75c0 1.05-.72 1.6-1.6 1.6h-17.68c-.91 0-1.65-.74-1.65-1.65v-1.54c0-.94.72-1.82 1.6-1.82h17.74c.88 0 1.6.77 1.6 1.82v1.6zm6.66-4.57c0-3.03-2.48-5.34-5.34-5.34h-23.41c-2.86 0-5.34 1.98-5.34 5.34v18.9c.06 3.2 2.37 5.29 5.34 5.29h25.78c1.05 0 2.97-1.05 2.97-2.92v-.77c0-1.32-1.49-2.81-2.97-2.81h-23.03c-.88 0-1.6-.72-1.6-1.6v-2.64c0-.91.74-1.65 1.65-1.65h20.6c3.2 0 5.4-2.26 5.34-5.18v-6.61zm-151.99 4.57c0 1.05-.72 1.6-1.6 1.6h-17.68c-.91 0-1.65-.74-1.65-1.65v-1.54c0-.94.72-1.82 1.6-1.82h17.74c.88 0 1.6.77 1.6 1.82v1.6zm6.67-4.57c0-3.03-2.48-5.34-5.34-5.34h-23.42c-2.86 0-5.34 1.98-5.34 5.34v18.9c.06 3.2 2.37 5.29 5.34 5.29h25.78c1.05 0 2.97-1.05 2.97-2.92v-.77c0-1.32-1.49-2.81-2.97-2.81h-23.02c-.88 0-1.6-.72-1.6-1.6v-2.64c0-.91.74-1.65 1.65-1.65h20.6c3.2 0 5.4-2.26 5.34-5.18v-6.61zm98.5 17.68h-17.63c-.97 0-1.76-.79-1.76-1.76v-12.95c0-.94.72-1.82 1.6-1.82h17.79c.91 0 1.65.74 1.65 1.65v13.22c0 .91-.74 1.65-1.65 1.65zm5.34-35.86h-.88c-2.04 0-2.81 1.49-2.81 2.81v8.37c0 .91-.74 1.65-1.65 1.65h-20.6c-3.08 0-5.29 2.31-5.29 5.34v18.9c.06 3.25 2.31 5.29 5.29 5.29h23.47c2.81 0 5.29-2.53 5.29-5.29v-34.26c0-1.32-.88-2.81-2.81-2.81zm-80.21 35.86c-.91 0-1.65-.74-1.65-1.65v-31.4c0-1.32-.61-2.81-2.81-2.81h-13.44c-1.6 0-2.75 1.49-2.75 2.81v.88c0 1.32 1.16 2.81 2.75 2.81h8.1c.91 0 1.65.74 1.65 1.65v26.06c0 .91-.74 1.65-1.65 1.65h-8.1c-1.6 0-2.75 1.49-2.75 2.81v.88c0 1.49.99 2.81 2.75 2.81h26c1.6 0 2.75-1.16 2.75-2.81v-.88c0-1.32-.99-2.81-2.75-2.81zm30.36-28.75c1.65 0 3.08-1.38 3.08-3.14v-.88c0-1.76-1.43-3.08-3.08-3.08h-.88c-1.65 0-3.08 1.32-3.08 3.08v.88c0 1.76 1.43 3.14 3.08 3.14zm2.81 8.54c0-1.16-.61-2.81-2.81-2.81h-13.44c-1.6 0-2.81.94-2.81 2.81v.88c0 1.76 1.21 2.81 2.81 2.81h8.1c.91 0 1.65.74 1.65 1.65v13.22c0 .91-.74 1.65-1.65 1.65h-8.1c-1.16 0-2.81 1.21-2.81 2.81v.88c0 1.65 1.65 2.81 2.81 2.81h26c1.6 0 2.81-1.32 2.81-2.81v-.88c0-1.32-1.21-2.81-2.81-2.81h-8.1c-.91 0-1.65-.74-1.65-1.65z" fill="url(#a)"></path></svg>